<svg fill="none" viewBox="0 0 24 24" xmlns="http://www.w3.org/2000/svg"><g clip-rule="evenodd" fill="#14345a" fill-rule="evenodd" class="fill-000000"><path d="M.25 20A6.75 6.75 0 0 1 7 13.25h10A6.75 6.75 0 0 1 23.75 20v2A1.75 1.75 0 0 1 22 23.75H2A1.75 1.75 0 0 1 .25 22v-2ZM7 14.75A5.25 5.25 0 0 0 1.75 20v2c0 .138.112.25.25.25h20a.25.25 0 0 0 .25-.25v-2c0-2.9-2.35-5.25-5.25-5.25H7ZM11.5 1.75a4.75 4.75 0 1 0 0 9.5 4.75 4.75 0 0 0 0-9.5ZM5.25 6.5a6.25 6.25 0 1 1 12.5 0 6.25 6.25 0 0 1-12.5 0Z"></path></g></svg>